<svg xmlns="http://www.w3.org/2000/svg" viewBox="0 0 34 34" enable-background="new 0 0 34 34"><style type="text/css">.st0{fill:#1FC4F3;}</style><path class="st0" d="M14.3 15.5c.3-.2.4-.5.4-.9 0-.5-.2-.8-.6-1-.3-.1-.7-.2-1.2-.2h-2.3v2.3h2.6c.4.1.8 0 1.1-.2zm7.4.3c-.5 0-.9.1-1.2.4-.3.3-.5.7-.5 1.2h3.5c0-.5-.2-.9-.5-1.2-.5-.2-.9-.4-1.3-.4zm-21.7-15.8v34h34v-34h-34zm19.4 12.1h4.5v1.3h-4.5v-1.3zm-2.7 8.5c-.2.3-.4.6-.7.8-.3.3-.7.4-1.2.5-.5.1-1 .1-1.5.1h-4.8v-10.4h5.1c1.3 0 2.2.4 2.7 1.1.3.4.5 1 .5 1.6 0 .6-.2 1.2-.5 1.5-.2.2-.4.4-.8.6.5.2.9.5 1.2.9.3.4.4.9.4 1.5 0 .8-.1 1.3-.4 1.8zm8.8-1.8h-5.7c0 .8.3 1.3.8 1.6.3.2.7.3 1.1.3.5 0 .8-.1 1.1-.4.2-.1.3-.3.4-.5h2.1c-.1.5-.3.9-.8 1.4-.5.8-1.5 1.2-2.8 1.2-1 0-1.9-.3-2.7-1-.8-.6-1.2-1.7-1.2-3.1 0-1.3.4-2.4 1.1-3.1.7-.7 1.6-1.1 2.8-1.1.7 0 1.3.1 1.8.4.5.2 1 .6 1.3 1.2.3.5.5 1 .6 1.6.1.3.1.8.1 1.5zm-11.3-1.1c-.2-.1-.6-.2-1.1-.2h-2.6v2.8h2.6c.5 0 .8-.1 1.1-.2.5-.2.7-.7.7-1.3 0-.5-.2-.9-.7-1.1z"/></svg>