<svg xmlns="http://www.w3.org/2000/svg" viewBox="0 0 34 34" enable-background="new 0 0 34 34"><style type="text/css">.st0{fill:#662D91;}</style><path class="st0" d="M35-1v36h-35.3c-.6 0-.7-.1-.7-.8v-35.2h36zm-15.5 21.8c.5-.1 1-.2 1.4-.2 1.6-.3 3.1-.9 3.8-2.6.6-1.5.9-3.2.3-4.8-.6-1.5-1.3-2.9-1.2-4.6 0-.6-.5-.8-1-.6l-2 .9c-.3.1-.7.2-1.1.2-1.4 0-2.8-.2-4.1 0-1 .1-1.8.1-2.6-.5-.4-.3-.9-.3-1.3-.5-.7-.3-1.1 0-1.1.7-.1 1.6-.1 3.2-1.1 4.6-.1.1-.1.4-.1.5-.3 3.6 1.1 6.1 4.6 6.7l1.1.2c-.2.3-.5.6-.6.9-.2.8-.8.9-1.4.9-.9 0-1.5-.3-2-.9-.3-.4-.6-.7-.9-1-.4-.4-.9-.5-1.3-.2.6.9 1.1 1.8 1.8 2.6.4.5 1 .8 1.6 1 .6.2 1.3.1 2 .1 0 1.2.5 2.6-1.1 3.4 1.3.4 2.2-.2 2.3-1.3v-2.5c0-.3.1-.7.2-1 .1 0 .2 0 .3.1-.2 1.8.4 3.7-.6 5.4.9.1 1.7-.5 1.8-1.4.1-1.2.1-2.5.1-3.7l.1-.6h.3v1.5c0 1 0 2 .1 3 .1.9.8 1.4 1.8 1.3-1.2-1.8-.5-3.6-.5-5.5.2.3.3.7.3 1 0 .9 0 1.8.1 2.7.1 1 1.1 1.6 2.3 1.1-1.4-.6-1.1-1.7-1.1-2.7v-1.2c-.2-1.2-.3-2.2-1.2-3z" id="C2BSGd_1_"/></svg>