<svg xmlns="http://www.w3.org/2000/svg" viewBox="0 0 34 34" enable-background="new 0 0 34 34"><style type="text/css">.st0{fill:#5F6364;}</style><path class="st0" d="M21.6 17c0 2.6-2.1 4.7-4.7 4.7s-4.7-2.1-4.7-4.7c0-.6.1-1.2.3-1.7h-2.5v7c0 .9.7 1.6 1.6 1.6h10.4c.9 0 1.6-.7 1.6-1.6v-7h-2.5c.4.5.5 1.1.5 1.7zm-4.6 3c1.7 0 3-1.3 3-3 0-.7-.2-1.3-.6-1.7-.5-.8-1.4-1.3-2.4-1.3s-1.9.5-2.4 1.2c-.4.6-.6 1.2-.6 1.8 0 1.7 1.3 3 3 3zm-17-20v34h34v-34h-34zm25.5 15.3v7c0 1.8-1.5 3.3-3.3 3.3h-10.4c-1.8 0-3.3-1.5-3.3-3.3v-10.5c0-1.8 1.5-3.3 3.3-3.3h10.4c1.8 0 3.3 1.5 3.3 3.3v3.5zm-2-2v-2.8h-2.9l.1 2.9z"/></svg>