<?xml version="1.0" encoding="utf-8"?>
<!-- Generator: Adobe Illustrator 19.1.0, SVG Export Plug-In . SVG Version: 6.00 Build 0)  -->
<!DOCTYPE svg PUBLIC "-//W3C//DTD SVG 1.1//EN" "http://www.w3.org/Graphics/SVG/1.1/DTD/svg11.dtd">
<svg version="1.1" id="Layer_1" xmlns="http://www.w3.org/2000/svg" xmlns:xlink="http://www.w3.org/1999/xlink" x="0px" y="0px"
	 viewBox="0 0 532.6 184.3" style="enable-background:new 0 0 532.6 184.3;" xml:space="preserve">
<style type="text/css">
	.st0{fill:#FFFFFF;}
</style>
<g>
	<path class="st0" d="M231.5,104.1h-3.3c-0.4,0-0.8,0.3-0.9,0.8l-5.7,35.7c-0.1,0.6,0.3,1.1,0.9,1.1h2.9c3.7,0,7-0.7,10-2l0.6-0.2
		l3.2-20.4c0.1-0.4,0.5-0.8,0.9-0.8h2.4c1.3,0,2.7,0.1,4.1,0.4l0.3,0c0.6,0.1,1.1-0.4,1.1-1l0-0.3c-0.3-3.4-1.3-6.2-3.2-8.3
		C241.8,105.8,237.2,104.1,231.5,104.1z"/>
	<path class="st0" d="M160.8,131.4h12c0.6,0,1-0.5,0.9-1.1l-3.1-17.8c-0.2-0.9-1.3-1-1.7-0.2l-8.8,17.8
		C159.7,130.7,160.1,131.4,160.8,131.4z"/>
	<path class="st0" d="M193.4,36.9l-8.8,17.8c-0.3,0.6,0.1,1.3,0.8,1.3h12c0.6,0,1-0.5,0.9-1.1l-3.1-17.8
		C195,36.3,193.8,36.2,193.4,36.9z"/>
	<path class="st0" d="M278.5,89.3H302c0.4,0,0.8-0.3,0.9-0.8l2.9-18.1c0-0.2,0-0.4-0.1-0.6l-9.8-15.9c-0.4-0.7-1.5-0.5-1.7,0.3
		l-4.1,26.1c-0.1,0.4-0.5,0.8-0.9,0.8H273c-0.8,0-1.2,0.9-0.7,1.5l5.5,6.4C278,89.2,278.3,89.3,278.5,89.3z"/>
	<path class="st0" d="M399,64.4l0.6-0.2l3.2-20.4c0.1-0.4,0.5-0.8,0.9-0.8h2.4c1.3,0,2.7,0.1,4.2,0.4l0.3,0c0.6,0.1,1.1-0.4,1.1-1
		l0-0.3c-0.3-3.4-1.3-6.2-3.2-8.3c-2.9-3.4-7.4-5.1-13.2-5.1h-3.3c-0.4,0-0.8,0.3-0.9,0.8l-5.7,35.7c-0.1,0.6,0.3,1.1,0.9,1.1h2.9
		C392.6,66.3,396,65.7,399,64.4z"/>
	<path class="st0" d="M292.8,103.4l-2.4,14.9c-0.1,0.6,0.3,1.1,0.9,1.1h0.6c5.2,0,12.2-0.9,13.4-8.4c0.4-2.4,0-4.2-1.2-5.6
		c-2.1-2.5-6.5-2.8-9.6-2.8h-0.9C293.3,102.6,292.9,103,292.8,103.4z"/>
	<path class="st0" d="M300.5,14.5l-3.9,24.4c-0.1,0.9,1,1.4,1.6,0.8L310.8,26c0.3-0.3,0.3-0.8,0-1.2l-8.8-10.7
		C301.6,13.5,300.6,13.8,300.5,14.5z"/>
	<path class="st0" d="M233.9,42.2l2-12.4c0.1-0.6-0.3-1.1-0.9-1.1h-12.9c-0.8,0-1.2,0.9-0.7,1.5l10.3,12.4c0.2,0.2,0.4,0.3,0.7,0.3
		h0.5C233.5,43,233.8,42.7,233.9,42.2z"/>
	<path class="st0" d="M99.5,95.3h3.7c0.3,0,0.6-0.2,0.8-0.5l2.9-5.1c0.2-0.3,0.5-0.5,0.8-0.5h10.5c0.4,0,0.8-0.3,0.9-0.8l3.2-19.9
		c0.1-0.4,0.5-0.8,0.9-0.8h9.5c0.4,0,0.8-0.3,0.9-0.8l2-12.4c0.1-0.6-0.3-1.1-0.9-1.1h-23.3c-0.4,0-0.8,0.3-0.9,0.8l-4.1,26
		c-0.1,0.4-0.5,0.8-0.9,0.8H89.1c-0.8,0-1.2,0.9-0.7,1.5L98.8,95C98.9,95.2,99.2,95.3,99.5,95.3z"/>
	<path class="st0" d="M283.6,156.4H268c-0.6,0-1-0.5-0.9-1.1l6.5-40.8l-0.2-0.4c-0.8-1.2-1.4-2.1-2.1-2.8l-6.1-6.7
		c-0.7-0.8-1.9,0-1.5,1l0.1,0.2c2.3,5.2,3,11.1,2,17.1c-2.9,18.5-20.6,33.6-39.4,33.6h-23.7c-0.6,0-1-0.5-0.9-1.1l2-12.4
		c0-0.1,0-0.2,0-0.3l-8.8-40.5c0-0.1-0.1-0.3-0.2-0.4l-9.4-11.1l-0.9,0.4l3.9-6.9c0.2-0.3,0.5-0.5,0.8-0.5h14.8
		c0.3,0,0.5,0.1,0.7,0.3l5.9,7c0.5,0.6,1.5,0.3,1.6-0.4l0.1-0.5c0.1-0.4,0.5-0.8,0.9-0.8h20.1l-0.1-0.3l0.2,0.3h3.7
		c6.9,0,13.3,2,18.4,5.8l0.4,0.2h0.6c0.4,0,0.8-0.3,0.9-0.8l8-50.8c0.1-0.4,0.5-0.8,0.9-0.8h11.6c0.4,0,0.8-0.3,0.9-0.8l2.6-16.5
		c0-0.3,0-0.5-0.2-0.7l-9.3-11c-0.5-0.6-1.5-0.3-1.6,0.4L268,28c-0.1,0.4-0.5,0.8-0.9,0.8h-12.9c-0.4,0-0.8,0.3-0.9,0.8l-8,50.8
		c-0.1,0.4-0.5,0.8-0.9,0.8h-15.3l0,0l0,0h-0.3c-0.6,0-1-0.5-0.9-1.1l1.3-8.4c0-0.1,0-0.2,0-0.3l-9.7-44.5c0-0.1-0.1-0.3-0.2-0.4
		l-9.8-11.4c-0.6-0.7-1.8-0.1-1.6,0.8l0,0.2l14,63.9c0.1,0.6-0.3,1.1-0.9,1.1h-16.7c-0.4,0-0.8-0.3-0.9-0.7l-2.2-10.2
		c-0.1-0.4-0.5-0.7-0.9-0.7h-22.8c-0.3,0-0.6,0.2-0.8,0.5l-6,10.7c-0.2,0.3-0.5,0.5-0.8,0.5h-16.5c-0.7,0-1.1-0.7-0.8-1.3l14.4-26.5
		c0-0.1,0.1-0.2,0.1-0.3l4.1-25.8c0-0.3,0-0.5-0.2-0.7l-10.3-12.4c-0.5-0.6-1.5-0.3-1.6,0.4l-10.4,65.9c-0.1,0.4-0.5,0.8-0.9,0.8
		h-16.2c-0.8,0-1.2,0.9-0.7,1.5L141.4,95c0.2,0.2,0.4,0.3,0.7,0.3h17.7c0.4,0,0.8-0.3,0.9-0.8l0.2-1.1l0.4,0.5l2.3-4.2
		c0.2-0.3,0.5-0.5,0.8-0.5h17.8c0.4,0,0.8,0.3,0.9,0.7l0.6,2.6l0,0l13.7,62.7c0.1,0.6-0.3,1.1-0.9,1.1h-16.7c-0.4,0-0.8-0.3-0.9-0.7
		l-2.2-10.2c-0.1-0.4-0.5-0.7-0.9-0.7H153c-0.3,0-0.6,0.2-0.8,0.5l-6,10.7c-0.2,0.3-0.5,0.5-0.8,0.5H129c-0.7,0-1.1-0.7-0.8-1.3
		l8-14.7c0.1-0.1,0.1-0.3,0.1-0.4l0.3-37.6c0-0.2-0.1-0.4-0.2-0.6L126,89.5c-0.5-0.7-1.6-0.3-1.6,0.6l-0.5,65.5
		c0,0.5-0.4,0.9-0.9,0.9h-16.4c-0.7,0-1.1-0.8-0.8-1.4l0.6-1.1c0.1-0.1,0.1-0.3,0.1-0.4l1-31c0-0.4-0.3-0.8-0.7-0.9l-0.7-0.2
		c-0.4-0.1-0.8,0.1-1,0.4l-19.6,34c-0.2,0.3-0.5,0.5-0.8,0.5h-5.9c-0.8,0-1.2,0.9-0.7,1.5l10.4,12.4c0.2,0.2,0.4,0.3,0.7,0.3h7.2
		c0.3,0,0.6-0.2,0.8-0.5l7.3-12.6c0.3-0.5,1.1-0.6,1.5-0.1l10.7,12.9c0.2,0.2,0.4,0.3,0.7,0.3H157c0.3,0,0.6-0.2,0.8-0.5l6-10.7
		c0.2-0.3,0.5-0.5,0.8-0.5h14.8c0.3,0,0.5,0.1,0.7,0.3l9.1,11c0.2,0.2,0.4,0.3,0.7,0.3h47.5c10.6,0,21.2-4.6,29.2-12.7l0.2-0.2
		l10.4,12.5c0.2,0.2,0.4,0.3,0.7,0.3h17.7c0.4,0,0.8-0.3,0.9-0.8l2.7-17.1c0-0.2,0-0.4-0.1-0.5l-9.3-19.3c-0.4-0.8-1.6-0.6-1.7,0.3
		l-3.6,22.4C284.5,156.1,284.1,156.4,283.6,156.4z"/>
	<path class="st0" d="M415.4,105.7L415.4,105.7C415.4,105.7,415.4,105.8,415.4,105.7c2.3,5.2,3,11.1,2,17.1
		c-2.9,18.5-20.6,33.6-39.4,33.6h-23.7c-0.6,0-1-0.5-0.9-1.1L363.8,90c0.1-0.4,0.5-0.8,0.9-0.8h24c6.6,0,12.7,1.8,17.6,5.3l0.4,0.3
		l0.5-0.1c10-1.7,19-7.2,25.3-14.7c0.1-0.1,0.2-0.3,0.2-0.5l6-37.7c0-0.2,0-0.4-0.1-0.6c-1-1.9-2.2-3.7-3.6-5.3l-6.1-6.7
		c-0.7-0.8-2,0.1-1.5,1l0,0c0,0,0,0,0,0.1c2.3,5.1,3,11,2,17c-2.9,18.5-20.6,33.6-39.4,33.6h-23.7c-0.6,0-1-0.5-0.9-1.1l9.3-58.9
		l0.1-0.5l-5.3-6.5c-0.5-0.6-1.5-0.4-1.6,0.4l-10.4,65.8c-0.1,0.4-0.5,0.8-0.9,0.8h-16.7c-0.3,0-0.6-0.2-0.8-0.4L325,59.2
		c-0.2-0.4-0.2-0.8,0.1-1.1l21.8-21.9c0.1-0.1,0.2-0.3,0.3-0.5l2.5-15.5c0-0.3,0-0.5-0.2-0.7l-4.5-5.5c-0.3-0.4-1-0.5-1.3-0.1
		l-31.3,31.3c-0.3,0.3-0.4,0.8-0.1,1.1l22.2,33.3c0.4,0.6,0,1.4-0.8,1.4h-20.4c-0.8,0-1.2,0.9-0.7,1.5L322.8,95
		c0.2,0.2,0.4,0.3,0.7,0.3h12.7c0.4,0,0.8-0.3,0.9-0.8l0.7-4.5c0.1-0.4,0.5-0.8,0.9-0.8h15.6c0.6,0,1,0.5,0.9,1.1l-10.3,65.3
		c-0.1,0.4-0.5,0.8-0.9,0.8h-16.3c-0.3,0-0.6-0.2-0.8-0.4l-7.5-12.2c-0.3-0.5-0.1-1.2,0.5-1.3c4.2-1.3,7.8-3.8,10.7-7.3l0.2-0.2
		l3.8-23.8l-0.2-0.3c-0.6-1.1-1.2-2.1-1.9-2.9l-7.7-8.8c-0.7-0.7-1.9-0.1-1.5,0.9l0.1,0.2c0.9,2.8,1,6.1,0.5,9.8
		c-1.5,9.4-7.7,16.5-16.2,18.6l-0.3,0.1c-0.6,0.1-0.9,0.8-0.6,1.4l15.2,25c0.4,0.6-0.1,1.4-0.8,1.4h-19.6c-0.8,0-1.2,0.9-0.7,1.5
		l10.4,12.4c0.2,0.2,0.4,0.3,0.7,0.3H389c14.1,0,27.6-8.3,35-20.1c0.2-0.3,0.2-0.8-0.1-1.1c-3.3-3.7-4.9-8.9-4-14.7
		c0.9-5.4,3.5-10.9,7.6-14.6c0.3-0.3,0.4-0.6,0.2-1c-1.1-3-2.6-5.3-4.8-7.8l-6-6.6C416.2,103.9,414.9,104.8,415.4,105.7z"/>
	<path class="st0" d="M383.1,104.1h-3.3c-0.4,0-0.8,0.3-0.9,0.8l-5.7,35.7c-0.1,0.6,0.3,1.1,0.9,1.1h2.9c3.7,0,7-0.7,10-1.9l0.6-0.2
		l3.2-20.4c0.1-0.4,0.5-0.8,0.9-0.8h2.4c1.3,0,2.7,0.1,4.2,0.4l0.3,0c0.6,0.1,1.1-0.4,1.1-1l0-0.3c-0.3-3.4-1.3-6.2-3.2-8.3
		C393.5,105.8,388.9,104.1,383.1,104.1z"/>
	<path class="st0" d="M61.5,90.5l0.2-0.6c0.1-0.4,0.5-0.6,0.9-0.6h15.8c0.4,0,0.8,0.3,0.9,0.7l7.3,32.8c0.2,0.8,1.3,1,1.7,0.2
		l5.2-9.3c0.1-0.2,0.1-0.4,0.1-0.6l-2.4-11c0-0.1-0.1-0.3-0.2-0.4l-7.7-9c-0.2-0.2-0.2-0.5-0.2-0.7l7.6-48.2
		c0.1-0.4,0.5-0.8,0.9-0.8h2.4c0.4,0,0.8-0.3,0.9-0.8l2-12.4c0.1-0.6-0.3-1.1-0.9-1.1H79.6c-0.4,0-0.8,0.3-0.9,0.8l-8,50.8
		c-0.1,0.4-0.5,0.8-0.9,0.8H53.6c-0.8,0-1.2,0.9-0.7,1.5l7,8.2C60.4,91.4,61.2,91.2,61.5,90.5z"/>
	<path class="st0" d="M128.6,26.5l-10.3-12.4c-0.5-0.6-1.5-0.3-1.6,0.4l-3.9,24.3c-0.1,0.6,0.3,1.1,0.9,1.1H126
		c0.4,0,0.8-0.3,0.9-0.8l1.9-11.9C128.8,26.9,128.7,26.7,128.6,26.5z"/>
	<path class="st0" d="M59.3,42.2l2-12.4c0.1-0.6-0.3-1.1-0.9-1.1H47.5c-0.8,0-1.2,0.9-0.7,1.5l10.3,12.4c0.2,0.2,0.4,0.3,0.7,0.3
		h0.6C58.8,43,59.2,42.7,59.3,42.2z"/>
	<path class="st0" d="M56.5,156.4H40.3c-0.8,0-1.2,0.9-0.7,1.5L50,170.3c0.2,0.2,0.4,0.3,0.7,0.3h17.6c0.4,0,0.8-0.3,0.9-0.6
		l6.9-22.7c0-0.2,0.1-0.3,0-0.5l-6.3-26.1c-0.2-0.9-1.5-0.9-1.8-0.1l-10.7,35.1C57.3,156.1,56.9,156.4,56.5,156.4z"/>
	<path class="st0" d="M462,124.1c-0.7-0.6-1.7,0.1-1.5,0.9c0.8,2.7,0.9,5.6,0.4,8.7c-1.9,11.7-12.9,21.2-24.6,21.2
		c-1.2,0-2.3-0.1-3.4-0.3c-0.9-0.2-1.5,1-0.8,1.6l6.3,5.4c3,2.9,7.3,4.7,12.2,4.7c11.3,0,21.7-9.2,23.5-20.3c1-6.4-1-12.1-5-15.8
		L462,124.1z"/>
	<path class="st0" d="M442.8,112.2c4.3,0,10.2,1.5,14.5,5.3c0.2,0.1,0.4,0.2,0.6,0.2l15,0.3c0.4,0,0.8-0.3,0.9-0.7l19.4-85.1
		c0.1-0.3,0-0.7-0.3-0.9l-10.6-9.7c-0.5-0.5-1.3-0.2-1.5,0.5l-19.2,84.3c-0.1,0.4-0.5,0.7-0.9,0.7h-29.3c-0.8,0-1.2,1-0.6,1.6
		l4.7,4.2c0.2,0.2,0.6,0.3,0.9,0.2C438.4,112.5,440.6,112.2,442.8,112.2z"/>
</g>
</svg>
