<?xml version="1.0" encoding="utf-8"?>
<!-- Generator: Adobe Illustrator 19.2.0, SVG Export Plug-In . SVG Version: 6.00 Build 0)  -->
<!DOCTYPE svg PUBLIC "-//W3C//DTD SVG 1.1//EN" "http://www.w3.org/Graphics/SVG/1.1/DTD/svg11.dtd">
<svg version="1.1" id="Layer_1" xmlns="http://www.w3.org/2000/svg" xmlns:xlink="http://www.w3.org/1999/xlink" x="0px" y="0px"
	 viewBox="0 0 552.4 133.5" style="enable-background:new 0 0 552.4 133.5;" xml:space="preserve">
<style type="text/css">
	.st0{fill:#FFFFFF;}
</style>
<g>
	<path class="st0" d="M434.1,112.2c-8.5,0-14.1,7.2-14.1,13.3c0,3,0.9,5.7,2.5,8h23.2c1.6-2.3,2.5-5,2.5-7.6
		C448.2,118.8,442.2,112.2,434.1,112.2z"/>
	<path class="st0" d="M380.2,112.2c-9.4,0-14.2,7.4-14.2,13.9c0,2.7,0.8,5.3,2.3,7.4H392c1.4-2.1,2.2-4.8,2.2-7.7
		C394.2,116.8,387,112.2,380.2,112.2z"/>
	<path class="st0" d="M300.1,112.2c-9.1,0-9.1,9.1-9.1,13.7v7.6h18.7v-10C309.6,117.6,307.1,112.2,300.1,112.2z"/>
	<path class="st0" d="M530.4,112.2c-8.5,0-14.1,7.2-14.1,13.3c0,3,0.9,5.7,2.5,8h19.6c1.4,0,2.8-0.2,4.1-0.6c1.3-2.2,2.1-4.6,2.1-7
		C544.5,118.8,538.5,112.2,530.4,112.2z"/>
	<path class="st0" d="M18.2,89.6h11.4v17.6c1.5-1.3,5.2-4.6,12.4-4.6c5.3,0,11.3,2.7,14.7,6.7c3.8,4.4,3.8,10.6,3.8,13.8v10.4h4.7
		c-0.8-2.4-1.2-5-1.2-7.9c0-13.3,10.7-23,23.9-23c9.7,0,15.5,6.4,15.8,7h0.2v-5.5h10.5v29.4h8.4v-20.1h-5.6v-9.3h5.6V89.6h11.4v14.5
		h6.9v9.3h-6.9v20.1H146V79.7h13.4v41h0.2l17.8-24h15.4l-20.1,25l10.3,11.8h14.6V96.7H211v36.8h7.3c-1.6-3.3-2.5-7.1-2.5-11.3
		c0-17.2,15.1-27.3,28.5-27.3c8.2,0,13,2.5,16.9,6.2V79.7h13.4v53.8h4.8v-29.4H290v3.7h0.2c0.9-1.4,4.2-5.2,12.5-5.2
		c2.6,0,9.3,0.5,13.8,6.8c5-6.5,12-6.8,15.4-6.8c9.4,0,14,4.6,15.7,6.8c1.9,2.3,3.6,6.4,3.6,12.9v11.2h4.6c-0.8-2.4-1.2-5-1.2-7.9
		c0-13.3,10.7-23,23.9-23c9.7,0,15.5,6.4,15.8,7h0.2v-5.5H405v29.4h4.8c-0.8-2.3-1.3-4.8-1.3-7.6c0-14.7,12.9-23.3,24.3-23.3
		c7,0,11.1,2.1,14.5,5.3V89.6h11.4v43.9h5.6v-29.4h10.5v3.8h0.2c2.2-2.8,4.3-5.3,10.2-5.3h0.9v10.1c-10.4,0.4-10.4,7.8-10.4,10.4
		v10.3h13.5v-29.4h11.4v29.4h5.4c-0.8-2.3-1.3-4.8-1.3-7.6c0-14.7,12.9-23.3,24.3-23.3c7,0,11.1,2.1,14.5,5.3V89.6h8.8V14.1
		c0-7.8-6.3-14.1-14.1-14.1H14.1C6.3,0,0,6.3,0,14.1v75.6h8.3v14.5h6.9v9.3H8.3v18.9c1.7,0.8,3.7,1.2,5.7,1.2h4.2V89.6z M489.3,89.6
		h11.4v9.6h-11.4V89.6z M197.6,79.7H211v11.2h-13.4V79.7z"/>
	<path class="st0" d="M339.7,133.5v-10c0-2.5,0-11.3-9-11.3c-3.2,0-6.3,1.6-7.9,4.1c-1.8,2.6-1.7,6.9-1.7,9.7v7.6H339.7z"/>
	<path class="st0" d="M89.7,112.2c-9.4,0-14.2,7.4-14.2,13.9c0,2.7,0.8,5.3,2.3,7.4h23.6c1.4-2.1,2.2-4.8,2.2-7.7
		C103.7,116.8,96.5,112.2,89.7,112.2z"/>
	<path class="st0" d="M39.3,112.2c-9.6,0-9.6,9.7-9.6,13.3v8h19.4v-8.1C49.1,120.7,48.8,112.2,39.3,112.2z"/>
	<path class="st0" d="M262.3,122.2c0-8.4-7-16-16.5-16c-10,0-16.5,8.5-16.5,15.6c0,4.7,1.9,8.8,5,11.7h23.1
		C260.5,130.5,262.3,126.3,262.3,122.2z"/>
	<polygon class="st0" points="159.3,123.8 159.3,133.5 167.2,133.5 159.5,123.8 	"/>
</g>
</svg>
