<svg xmlns="http://www.w3.org/2000/svg" viewBox="0 0 532.6 184.3" enable-background="new 0 0 532.6 184.3"><style type="text/css">.st0{fill:#FFFFFF;}</style><path class="st0" d="M231.5 104.1h-3.3c-.4 0-.8.3-.9.8l-5.7 35.7c-.1.6.3 1.1.9 1.1h2.9c3.7 0 7-.7 10-2l.6-.2 3.2-20.4c.1-.4.5-.8.9-.8h2.4c1.3 0 2.7.1 4.1.4h.3c.6.1 1.1-.4 1.1-1v-.3c-.3-3.4-1.3-6.2-3.2-8.3-3-3.3-7.6-5-13.3-5zm-70.7 27.3h12c.6 0 1-.5.9-1.1l-3.1-17.8c-.2-.9-1.3-1-1.7-.2l-8.8 17.8c-.4.6 0 1.3.7 1.3zm32.6-94.5l-8.8 17.8c-.3.6.1 1.3.8 1.3h12c.6 0 1-.5.9-1.1l-3.1-17.8c-.2-.8-1.4-.9-1.8-.2zm85.1 52.4h23.5c.4 0 .8-.3.9-.8l2.9-18.1c0-.2 0-.4-.1-.6l-9.8-15.9c-.4-.7-1.5-.5-1.7.3l-4.1 26.1c-.1.4-.5.8-.9.8h-16.2c-.8 0-1.2.9-.7 1.5l5.5 6.4c.2.2.5.3.7.3zm120.5-24.9l.6-.2 3.2-20.4c.1-.4.5-.8.9-.8h2.4c1.3 0 2.7.1 4.2.4h.3c.6.1 1.1-.4 1.1-1v-.3c-.3-3.4-1.3-6.2-3.2-8.3-2.9-3.4-7.4-5.1-13.2-5.1h-3.3c-.4 0-.8.3-.9.8l-5.7 35.7c-.1.6.3 1.1.9 1.1h2.9c3.4 0 6.8-.6 9.8-1.9zm-106.2 39l-2.4 14.9c-.1.6.3 1.1.9 1.1h.6c5.2 0 12.2-.9 13.4-8.4.4-2.4 0-4.2-1.2-5.6-2.1-2.5-6.5-2.8-9.6-2.8h-.9c-.3 0-.7.4-.8.8zm7.7-88.9l-3.9 24.4c-.1.9 1 1.4 1.6.8l12.6-13.7c.3-.3.3-.8 0-1.2l-8.8-10.7c-.4-.6-1.4-.3-1.5.4zm-66.6 27.7l2-12.4c.1-.6-.3-1.1-.9-1.1h-12.9c-.8 0-1.2.9-.7 1.5l10.3 12.4c.2.2.4.3.7.3h.5c.6.1.9-.2 1-.7zm-134.4 53.1h3.7c.3 0 .6-.2.8-.5l2.9-5.1c.2-.3.5-.5.8-.5h10.5c.4 0 .8-.3.9-.8l3.2-19.9c.1-.4.5-.8.9-.8h9.5c.4 0 .8-.3.9-.8l2-12.4c.1-.6-.3-1.1-.9-1.1h-23.3c-.4 0-.8.3-.9.8l-4.1 26c-.1.4-.5.8-.9.8h-16.4c-.8 0-1.2.9-.7 1.5l10.4 12.5c.1.2.4.3.7.3zm184.1 61.1h-15.6c-.6 0-1-.5-.9-1.1l6.5-40.8-.2-.4c-.8-1.2-1.4-2.1-2.1-2.8l-6.1-6.7c-.7-.8-1.9 0-1.5 1l.1.2c2.3 5.2 3 11.1 2 17.1-2.9 18.5-20.6 33.6-39.4 33.6h-23.7c-.6 0-1-.5-.9-1.1l2-12.4v-.3l-8.8-40.5c0-.1-.1-.3-.2-.4l-9.4-11.1-.9.4 3.9-6.9c.2-.3.5-.5.8-.5h14.8c.3 0 .5.1.7.3l5.9 7c.5.6 1.5.3 1.6-.4l.1-.5c.1-.4.5-.8.9-.8h20.1l-.1-.3.2.3h3.7c6.9 0 13.3 2 18.4 5.8l.4.2h.6c.4 0 .8-.3.9-.8l8-50.8c.1-.4.5-.8.9-.8h11.6c.4 0 .8-.3.9-.8l2.6-16.5c0-.3 0-.5-.2-.7l-9.3-11c-.5-.6-1.5-.3-1.6.4l-2.3 13.7c-.1.4-.5.8-.9.8h-12.9c-.4 0-.8.3-.9.8l-8 50.8c-.1.4-.5.8-.9.8h-15.6c-.6 0-1-.5-.9-1.1l1.3-8.4v-.3l-9.7-44.5c0-.1-.1-.3-.2-.4l-9.8-11.4c-.6-.7-1.8-.1-1.6.8v.2l14 63.9c.1.6-.3 1.1-.9 1.1h-16.7c-.4 0-.8-.3-.9-.7l-2.2-10.2c-.1-.4-.5-.7-.9-.7h-22.8c-.3 0-.6.2-.8.5l-6 10.7c-.2.3-.5.5-.8.5h-16.5c-.7 0-1.1-.7-.8-1.3l14.4-26.5.1-.3 4.1-25.8c0-.3 0-.5-.2-.7l-10.3-12.4c-.5-.6-1.5-.3-1.6.4l-10.4 65.9c-.1.4-.5.8-.9.8h-16.2c-.8 0-1.2.9-.7 1.5l10.5 12.2c.2.2.4.3.7.3h17.7c.4 0 .8-.3.9-.8l.2-1.1.4.5 2.3-4.2c.2-.3.5-.5.8-.5h17.8c.4 0 .8.3.9.7l.6 2.6 13.7 62.7c.1.6-.3 1.1-.9 1.1h-16.7c-.4 0-.8-.3-.9-.7l-2.2-10.2c-.1-.4-.5-.7-.9-.7h-22.8c-.3 0-.6.2-.8.5l-6 10.7c-.2.3-.5.5-.8.5h-16.4c-.7 0-1.1-.7-.8-1.3l8-14.7c.1-.1.1-.3.1-.4l.3-37.6c0-.2-.1-.4-.2-.6l-10.4-12.3c-.5-.7-1.6-.3-1.6.6l-.5 65.5c0 .5-.4.9-.9.9h-16.4c-.7 0-1.1-.8-.8-1.4l.6-1.1c.1-.1.1-.3.1-.4l1-31c0-.4-.3-.8-.7-.9l-.7-.2c-.4-.1-.8.1-1 .4l-19.6 34c-.2.3-.5.5-.8.5h-5.9c-.8 0-1.2.9-.7 1.5l10.4 12.4c.2.2.4.3.7.3h7.2c.3 0 .6-.2.8-.5l7.3-12.6c.3-.5 1.1-.6 1.5-.1l10.7 12.9c.2.2.4.3.7.3h39.6c.3 0 .6-.2.8-.5l6-10.7c.2-.3.5-.5.8-.5h14.8c.3 0 .5.1.7.3l9.1 11c.2.2.4.3.7.3h47.5c10.6 0 21.2-4.6 29.2-12.7l.2-.2 10.4 12.5c.2.2.4.3.7.3h17.7c.4 0 .8-.3.9-.8l2.7-17.1c0-.2 0-.4-.1-.5l-9.3-19.3c-.4-.8-1.6-.6-1.7.3l-3.6 22.4c0 .7-.4 1-.9 1zm131.8-50.7c2.3 5.2 3 11.1 2 17.1-2.9 18.5-20.6 33.6-39.4 33.6h-23.7c-.6 0-1-.5-.9-1.1l10.4-65.3c.1-.4.5-.8.9-.8h24c6.6 0 12.7 1.8 17.6 5.3l.4.3.5-.1c10-1.7 19-7.2 25.3-14.7.1-.1.2-.3.2-.5l6-37.7c0-.2 0-.4-.1-.6-1-1.9-2.2-3.7-3.6-5.3l-6.1-6.7c-.7-.8-2 .1-1.5 1v.1c2.3 5.1 3 11 2 17-2.9 18.5-20.6 33.6-39.4 33.6h-23.7c-.6 0-1-.5-.9-1.1l9.3-58.9.1-.5-5.3-6.5c-.5-.6-1.5-.4-1.6.4l-10.4 65.8c-.1.4-.5.8-.9.8h-16.7c-.3 0-.6-.2-.8-.4l-14.1-21.3c-.2-.4-.2-.8.1-1.1l21.8-21.9c.1-.1.2-.3.3-.5l2.5-15.5c0-.3 0-.5-.2-.7l-4.5-5.5c-.3-.4-1-.5-1.3-.1l-31.3 31.3c-.3.3-.4.8-.1 1.1l22.2 33.3c.4.6 0 1.4-.8 1.4h-20.4c-.8 0-1.2.9-.7 1.5l10.2 12.5c.2.2.4.3.7.3h12.7c.4 0 .8-.3.9-.8l.7-4.5c.1-.4.5-.8.9-.8h15.6c.6 0 1 .5.9 1.1l-10.3 65.3c-.1.4-.5.8-.9.8h-16.3c-.3 0-.6-.2-.8-.4l-7.5-12.2c-.3-.5-.1-1.2.5-1.3 4.2-1.3 7.8-3.8 10.7-7.3l.2-.2 3.8-23.8-.2-.3c-.6-1.1-1.2-2.1-1.9-2.9l-7.7-8.8c-.7-.7-1.9-.1-1.5.9l.1.2c.9 2.8 1 6.1.5 9.8-1.5 9.4-7.7 16.5-16.2 18.6l-.3.1c-.6.1-.9.8-.6 1.4l15.2 25c.4.6-.1 1.4-.8 1.4h-19.6c-.8 0-1.2.9-.7 1.5l10.4 12.4c.2.2.4.3.7.3h77c14.1 0 27.6-8.3 35-20.1.2-.3.2-.8-.1-1.1-3.3-3.7-4.9-8.9-4-14.7.9-5.4 3.5-10.9 7.6-14.6.3-.3.4-.6.2-1-1.1-3-2.6-5.3-4.8-7.8l-6-6.6c-.7-1-2-.1-1.5.8zm-32.3-1.6h-3.3c-.4 0-.8.3-.9.8l-5.7 35.7c-.1.6.3 1.1.9 1.1h2.9c3.7 0 7-.7 10-1.9l.6-.2 3.2-20.4c.1-.4.5-.8.9-.8h2.4c1.3 0 2.7.1 4.2.4h.3c.6.1 1.1-.4 1.1-1v-.3c-.3-3.4-1.3-6.2-3.2-8.3-3-3.4-7.6-5.1-13.4-5.1zm-321.6-13.6l.2-.6c.1-.4.5-.6.9-.6h15.8c.4 0 .8.3.9.7l7.3 32.8c.2.8 1.3 1 1.7.2l5.2-9.3c.1-.2.1-.4.1-.6l-2.4-11c0-.1-.1-.3-.2-.4l-7.7-9c-.2-.2-.2-.5-.2-.7l7.6-48.2c.1-.4.5-.8.9-.8h2.4c.4 0 .8-.3.9-.8l2-12.4c.1-.6-.3-1.1-.9-1.1h-16.4c-.4 0-.8.3-.9.8l-8 50.8c-.1.4-.5.8-.9.8h-16.2c-.8 0-1.2.9-.7 1.5l7 8.2c.5.6 1.3.4 1.6-.3zm67.1-64l-10.3-12.4c-.5-.6-1.5-.3-1.6.4l-3.9 24.3c-.1.6.3 1.1.9 1.1h12.3c.4 0 .8-.3.9-.8l1.9-11.9c0-.3-.1-.5-.2-.7zm-69.3 15.7l2-12.4c.1-.6-.3-1.1-.9-1.1h-12.9c-.8 0-1.2.9-.7 1.5l10.3 12.4c.2.2.4.3.7.3h.6c.4.1.8-.2.9-.7zm-2.8 114.2h-16.2c-.8 0-1.2.9-.7 1.5l10.4 12.4c.2.2.4.3.7.3h17.6c.4 0 .8-.3.9-.6l6.9-22.7c0-.2.1-.3 0-.5l-6.3-26.1c-.2-.9-1.5-.9-1.8-.1l-10.7 35.1c0 .4-.4.7-.8.7zm405.5-32.3c-.7-.6-1.7.1-1.5.9.8 2.7.9 5.6.4 8.7-1.9 11.7-12.9 21.2-24.6 21.2-1.2 0-2.3-.1-3.4-.3-.9-.2-1.5 1-.8 1.6l6.3 5.4c3 2.9 7.3 4.7 12.2 4.7 11.3 0 21.7-9.2 23.5-20.3 1-6.4-1-12.1-5-15.8l-7.1-6.1zm-19.2-11.9c4.3 0 10.2 1.5 14.5 5.3.2.1.4.2.6.2l15 .3c.4 0 .8-.3.9-.7l19.4-85.1c.1-.3 0-.7-.3-.9l-10.6-9.7c-.5-.5-1.3-.2-1.5.5l-19.2 84.3c-.1.4-.5.7-.9.7h-29.3c-.8 0-1.2 1-.6 1.6l4.7 4.2c.2.2.6.3.9.2 2-.6 4.2-.9 6.4-.9z"/></svg>