<svg xmlns="http://www.w3.org/2000/svg" viewBox="0 0 34 34" enable-background="new 0 0 34 34"><style type="text/css">.st0{fill:#65CCEF;}</style><path class="st0" d="M0 0v34h34v-34h-34zm23.8 14.4v.5c0 4.6-3.5 9.9-9.9 9.9-2 0-3.8-.6-5.4-1.6h.8c1.6 0 3.1-.6 4.3-1.5-1.5 0-2.8-1-3.3-2.4.2 0 .4.1.7.1.3 0 .6 0 .9-.1-1.6-.3-2.8-1.7-2.8-3.4.5.3 1 .4 1.6.4-.9-.6-1.6-1.7-1.6-2.9 0-.6.2-1.2.5-1.8 1.7 2.1 4.3 3.5 7.2 3.7-.1-.3-.1-.5-.1-.8 0-1.9 1.6-3.5 3.5-3.5 1 0 1.9.4 2.6 1.1.8-.2 1.5-.4 2.2-.8-.3.8-.8 1.5-1.5 1.9.7-.1 1.4-.3 2-.6-.4.7-1 1.3-1.7 1.8z"/></svg>